<svg width="16" height="16" viewBox="0 0 16 16" fill="none" xmlns="http://www.w3.org/2000/svg">
  <g clip-path="url(#clip0)">
    <path d="M8 4.67C9.84 4.67 11.33 6.16 11.33 8C11.33 8.43 11.25 8.84 11.1 9.22L13.05 11.17C14.05 10.33 14.85 9.24 15.34 8C14.18 5.07 11.34 3 8 3C7.07 3 6.17 3.17 5.34 3.47L6.78 4.9C7.16 4.76 7.57 4.67 8 4.67ZM1.33 2.85L2.85 4.37L3.16 4.67C2.06 5.53 1.19 6.68 0.67 8C1.82 10.93 4.67 13 8 13C9.03 13 10.02 12.8 10.92 12.44L11.21 12.72L13.15 14.67L14 13.82L2.18 2L1.33 2.85ZM5.02 6.53L6.05 7.56C6.02 7.71 6 7.85 6 8C6 9.1 6.9 10 8 10C8.15 10 8.29 9.98 8.43 9.95L9.46 10.98C9.02 11.2 8.53 11.33 8 11.33C6 9.84 4.67 9.84 4.67 8C4.67 7.47 4.8 6.98 5.02 6.53ZM7.89 6.01L9.99 8.11L10 8C10 6 9.1 6 8 6L7.89 6.01Z" fill="black"/>
  </g>
  <defs>
    <clipPath id="clip0">
      <rect width="16" height="16" fill="white"/>
    </clipPath>
  </defs>
</svg>