<svg width="64" height="64" viewBox="0 0 64 64" fill="none" xmlns="http://www.w3.org/2000/svg">
<path d="M2.74465 43.4562C5.70053 51.2184 11.6331 57.519 19.1423 60.9631C19.1828 60.9866 19.2232 61.0057 19.2687 61.0202C23.2332 62.8174 27.6276 63.8269 32.2561 63.8269C36.1112 63.8269 39.8055 63.1297 43.2236 61.8593C43.3096 61.8449 43.3895 61.813 43.4652 61.7638C51.1917 58.8186 57.4694 52.9249 60.9214 45.4626C60.9881 45.3811 61.0303 45.2843 61.0509 45.1768C62.829 41.2298 63.8272 36.8587 63.8272 32.2564C63.8272 14.848 49.6645 0.685303 32.2561 0.685303C28.3615 0.685303 24.6316 1.39887 21.184 2.69424C21.1777 2.6966 21.1717 2.69881 21.1656 2.7015C13.3563 5.64176 7.01531 11.5922 3.55384 19.1316C3.53238 19.1692 3.51439 19.2068 3.50082 19.2489C1.69781 23.2185 0.685059 27.6201 0.685059 32.2564C0.685059 36.1234 1.38726 39.8288 2.66543 43.2559C2.67995 43.3269 2.70614 43.3926 2.74465 43.4562ZM18.8149 59.3766C12.1087 56.0395 6.81175 50.2893 4.05974 43.2682L18.8149 28.4979V59.3766ZM32.2561 62.5342C27.9366 62.5342 23.8291 61.6186 20.1075 59.9816V39.1121L41.9171 60.9445C38.8807 61.9699 35.634 62.5342 32.2561 62.5342ZM43.2568 60.4567L28.5207 45.7053H59.3729C56.0332 52.4111 50.2805 57.7073 43.2568 60.4567ZM62.5345 32.2564C62.5345 36.5788 61.6177 40.6892 59.9785 44.4126H39.1264L60.9389 22.5777C61.9681 25.6191 62.5345 28.8719 62.5345 32.2564ZM45.6968 5.13522C52.4014 8.4714 57.6974 14.2194 60.45 21.2381L45.6968 36.0066V5.13522ZM37.3998 44.3122C37.3701 44.3419 37.3557 44.3791 37.3332 44.4126H27.3549C27.3178 44.4126 27.2858 44.4277 27.2505 44.4337L20.2079 37.3836C20.1782 37.3539 20.141 37.3396 20.1075 37.317V27.3634C20.1075 27.3163 20.0903 27.2748 20.0807 27.2307L27.1119 20.1924C27.1416 20.1627 27.1559 20.1255 27.1785 20.092H37.1561C37.1935 20.092 37.2259 20.0769 37.2615 20.0709L44.3038 27.1204C44.3334 27.15 44.3707 27.1644 44.4041 27.187V37.1406C44.4041 37.1879 44.4213 37.2294 44.4309 37.2738L37.3998 44.3122ZM32.2561 1.97799C36.5754 1.97799 40.6829 2.89338 44.4041 4.53022V25.3918L22.6004 3.56576C25.6352 2.54165 28.8802 1.97799 32.2561 1.97799ZM21.2604 4.05336L35.9912 18.7993H5.14319C8.48426 12.0954 14.2371 6.80126 21.2604 4.05336ZM4.5374 20.092H25.3853L3.5712 41.9283C2.54345 38.8888 1.97775 35.6383 1.97775 32.2564C1.97774 27.9308 2.89598 23.8176 4.5374 20.092Z" 
fill="white"/>
</svg>
