<svg width="61" height="61" viewBox="0 0 61 61" fill="none" xmlns="http://www.w3.org/2000/svg">
<path opacity="0.21" fill-rule="evenodd" clip-rule="evenodd" d="M0.269043 30.5249V37.1884C0.269043 49.891 10.5665 60.1884 23.269 60.1884H30.269H37.269C49.9716 60.1884 60.269 49.891 60.269 37.1884V30.5249V23.8613C60.269 11.1588 49.9716 0.861328 37.269 0.861328H30.269H23.269C10.5665 0.861328 0.269043 11.1588 0.269043 23.8613V30.5249Z" fill="#8280FF"/>
<g clip-path="url(#clip0_2268_280)">
<path d="M40.269 23.0229H36.519V20.5229C36.519 19.1417 35.4003 18.0229 34.019 18.0229H26.519C25.1378 18.0229 24.019 19.1417 24.019 20.5229V23.0229H20.269C18.8878 23.0229 17.769 24.1417 17.769 25.5229V39.2729C17.769 40.6542 18.8878 41.7729 20.269 41.7729H40.269C41.6503 41.7729 42.769 40.6542 42.769 39.2729V25.5229C42.769 24.1417 41.6503 23.0229 40.269 23.0229ZM26.519 20.5229H34.019V23.0229H26.519V20.5229ZM40.269 39.2729H20.269V36.7729H40.269V39.2729ZM40.269 33.0229H20.269V25.5229H24.019V28.0229H26.519V25.5229H34.019V28.0229H36.519V25.5229H40.269V33.0229Z" fill="#8280FF"/>
</g>
<defs>
<clipPath id="clip0_2268_280">
<rect width="30" height="30" fill="white" transform="translate(15.269 15.5229)"/>
</clipPath>
</defs>
</svg>
