<svg width="61" height="61" viewBox="0 0 61 61" fill="none" xmlns="http://www.w3.org/2000/svg">
<path opacity="0.21" fill-rule="evenodd" clip-rule="evenodd" d="M0.45459 30.5229V37.1865C0.45459 49.889 10.752 60.1865 23.4546 60.1865H30.4546H37.4546C50.1571 60.1865 60.4546 49.889 60.4546 37.1865V30.5229V23.8594C60.4546 11.1568 50.1571 0.859375 37.4546 0.859375H30.4546H23.4546C10.752 0.859375 0.45459 11.1568 0.45459 23.8594V30.5229Z" fill="#4AD991"/>
<path d="M19.5657 39.0691H42.899C43.7581 39.0691 44.4546 39.7577 44.4546 40.6072C44.4546 41.4567 43.7581 42.1453 42.899 42.1453H18.0101C17.151 42.1453 16.4546 41.4567 16.4546 40.6072V15.9975C16.4546 15.148 17.151 14.4594 18.0101 14.4594C18.8693 14.4594 19.5657 15.148 19.5657 15.9975V39.0691Z" fill="#4AD991"/>
<path opacity="0.5" d="M25.3672 32.4305C24.7796 33.0502 23.7952 33.0816 23.1684 32.5006C22.5417 31.9197 22.5099 30.9463 23.0975 30.3266L28.9308 24.1741C29.4991 23.5748 30.4434 23.5228 31.0754 24.0561L35.6794 27.9408L41.6781 20.4277C42.2104 19.761 43.1886 19.6472 43.8629 20.1736C44.5372 20.7 44.6523 21.6672 44.1199 22.3339L37.1199 31.1011C36.5732 31.7859 35.5605 31.8844 34.8892 31.3181L30.1852 27.3489L25.3672 32.4305Z" fill="#4AD991"/>
</svg>
