<?xml version="1.0" encoding="UTF-8"?>
<svg width="16px" height="16px" viewBox="0 0 16 16" version="1.1" xmlns="http://www.w3.org/2000/svg">
    <g stroke="none" stroke-width="1" fill="none" fill-rule="evenodd">
        <path d="M4.5,6 L11.5,6 C11.7761424,6 12,5.77614237 12,5.5 C12,5.22385763 11.7761424,5 11.5,5 L4.5,5 C4.22385763,5 4,5.22385763 4,5.5 C4,5.77614237 4.22385763,6 4.5,6 Z M4.5,9 L11.5,9 C11.7761424,9 12,8.77614237 12,8.5 C12,8.22385763 11.7761424,8 11.5,8 L4.5,8 C4.22385763,8 4,8.22385763 4,8.5 C4,8.77614237 4.22385763,9 4.5,9 Z M4.5,12 L11.5,12 C11.7761424,12 12,11.7761424 12,11.5 C12,11.2238576 11.7761424,11 11.5,11 L4.5,11 C4.22385763,11 4,11.2238576 4,11.5 C4,11.7761424 4.22385763,12 4.5,12 Z" fill="currentColor" fill-rule="nonzero"></path>
    </g>
</svg> 