<svg width="60" height="61" viewBox="0 0 60 61" fill="none" xmlns="http://www.w3.org/2000/svg">
<path opacity="0.21" fill-rule="evenodd" clip-rule="evenodd" d="M0 30.5249V37.1884C0 49.891 10.2975 60.1884 23 60.1884H30H37C49.7025 60.1884 60 49.891 60 37.1884V30.5249V23.8613C60 11.1588 49.7025 0.861328 37 0.861328H30H23C10.2975 0.861328 0 11.1588 0 23.8613V30.5249Z" fill="#FEC53D"/>
<path fill-rule="evenodd" clip-rule="evenodd" d="M15 24.9051L27.9005 32.2697C28.0394 32.349 28.1851 32.4063 28.3333 32.4426V46.7259L15.9201 39.4621C15.3498 39.1284 15 38.5218 15 37.8666V24.9051ZM45 24.7094V37.8666C45 38.5218 44.6502 39.1284 44.0799 39.4621L31.6667 46.7259V32.3175C31.6969 32.3026 31.7269 32.2866 31.7566 32.2697L45 24.7094Z" fill="#FEC53D"/>
<path opacity="0.499209" fill-rule="evenodd" clip-rule="evenodd" d="M15.4053 21.3306C15.5628 21.1339 15.7617 20.9676 15.9936 20.8455L29.1186 13.9332C29.6696 13.643 30.3305 13.643 30.8815 13.9332L44.0065 20.8455C44.1852 20.9396 44.3444 21.06 44.4801 21.2003L30.0899 29.4153C29.9953 29.4693 29.9081 29.5312 29.8286 29.5995C29.7491 29.5312 29.6618 29.4693 29.5672 29.4153L15.4053 21.3306Z" fill="#FEC53D"/>
</svg>
